<svg id="App_Icon_Kit_A" data-name="App Icon Kit A" xmlns="http://www.w3.org/2000/svg" xmlns:xlink="http://www.w3.org/1999/xlink" viewBox="0 0 180 180"><defs><style>.cls-1{fill:#575757;}.cls-2{fill:#ffb400;}.cls-3{fill:#e1e0d8;}.cls-4{fill:#1e1e1d;}</style><symbol id="Icon" data-name="Icon" viewBox="0 0 1024 1024"><path id="App_Icon_Placeholder" data-name="App Icon Placeholder" class="cls-1" d="M357,0H667C769.8,0,821.18,0,876.52,17.49a217.46,217.46,0,0,1,130,130C1024,202.83,1024,254.22,1024,357V667c0,102.8,0,154.19-17.5,209.53a217.43,217.43,0,0,1-130,130C821.18,1024,769.8,1024,667,1024H357c-102.79,0-154.18,0-209.51-17.5a217.43,217.43,0,0,1-130-130C0,821.18,0,769.79,0,667V357C0,254.22,0,202.83,17.5,147.48a217.46,217.46,0,0,1,130-130C202.82,0,254.2,0,357,0h0"/><path class="cls-2" d="M977.28,407.69H952.34V379a14.21,14.21,0,1,0-28.41,0V365.87a14.21,14.21,0,1,0-28.41,0v-4.25a14.21,14.21,0,1,0-28.41,0v45.9H850.44c-9.41-7.14-24.44-7.82-29.56,0H590.47c-5.12-7.82-20.15-7.14-29.56,0H546.7v-45.9a14.21,14.21,0,1,0-28.41,0v4.25a14.21,14.21,0,1,0-28.41,0V379a14.21,14.21,0,1,0-28.41,0v28.73H434.22a12.59,12.59,0,0,0,0,25.16h27.42v28.56a14.21,14.21,0,1,0,28.41,0v13.09a14.21,14.21,0,1,0,28.41,0v4.25a14.21,14.21,0,1,0,28.41,0v-45.9h7.27c2.31,8.84,7.93,10,7.93,10s10.74,44.54,17.51,67.49S616.07,582,632.91,616.8s8.75,104.39,5.45,118.84c-23.62,62.56-37.82,180.72-37.82,180.72-10.08,1.36-16.85,11.05-17.51,22.27-.66,11.05,30.39,6.29,42,6.29s7.43-9.69,10.74-23S664.13,844.11,679,805.85s27.09-36.21,27.09-36.21,12.22-2,27.09,36.21S773,908.71,776.44,922c3.3,13.26-.66,23,10.74,23s42.61,4.93,42-6.29c-.66-11.05-7.43-20.91-17.51-22.27,0,0-14.2-118.16-37.82-180.72-3.3-14.62-11.56-84.15,5.45-118.84C796.1,582,825.83,533.33,832.6,510.38s17.51-67.49,17.51-67.49,5.78-1.19,7.93-10h9.58v45.9a14.21,14.21,0,1,0,28.41,0v-4.25a14.21,14.21,0,1,0,28.41,0V461.42a14.21,14.21,0,1,0,28.41,0V432.68h24.94A12.38,12.38,0,0,0,990,420.1C989.5,413.3,984.05,407.69,977.28,407.69ZM782.22,515.82c-10.9,16.66-37.16,41-43.27,42.33S750.51,545.57,747,515c-3.3-30.6-21-41.65-41.29-41-20.32-.68-37.82,10.37-41.29,41-3.3,30.6,14.2,44.54,8.09,43.18s-32.37-25.67-43.27-42.33-39.8-78.54-39.8-78.54a44.89,44.89,0,0,0,1.82-4.59H820a44.89,44.89,0,0,0,1.82,4.59S793.12,499.16,782.22,515.82Z"/><path class="cls-2" d="M76.47,189.47l49.23-32.53,11.78,16.51L88.25,206Z"/><path class="cls-2" d="M100.63,197.89l24.56-16.23,22.09,31-24.56,16.23Z"/><path class="cls-2" d="M373,206l-49.23-32.53L335.59,157l49.23,32.53Z"/><path class="cls-2" d="M338.68,228.75l-24.56-16.23,22.09-31,24.56,16.23Z"/><path class="cls-3" d="M256.4,67.61H205.06c-14,0-25.36,10.9-25.36,24.41V116c0,13.51,11.33,24.41,25.36,24.41H256.4c14,0,25.36-10.9,25.36-24.41V92C281.76,78.51,270.43,67.61,256.4,67.61ZM271.54,116c0,8.06-6.77,14.58-15.14,14.58H205.06c-8.37,0-15.14-6.52-15.14-14.58V92c0-8.06,6.77-14.58,15.14-14.58H256.4c8.37,0,15.14,6.52,15.14,14.58Z"/><path class="cls-3" d="M244,109.92H217.37c-8.37,0-15.14,6.52-15.14,14.58v57.12h57V124.49C259.23,116.44,252.46,109.92,244,109.92Z"/><path class="cls-3" d="M230.67,178.3C137.47,178.3,62,250.94,62,340.65S137.47,503,230.67,503s168.67-72.64,168.67-162.35S323.86,178.3,230.67,178.3Zm0,299.11c-78.42,0-142.07-61.27-142.07-136.76s63.65-136.76,142.07-136.76,142.07,61.27,142.07,136.76S309.21,477.4,230.67,477.4Z"/><path class="cls-3" d="M230.67,469.7c-73.87,0-133.95-57.83-133.95-128.93S156.8,211.83,230.67,211.83s133.95,57.83,133.95,128.93S304.66,469.7,230.67,469.7Zm0-254.08c-71.65,0-129.89,56.05-129.89,125s58.23,125,129.89,125,129.89-56.05,129.89-125S302.32,215.62,230.67,215.62Z"/><path class="cls-2" d="M230.67,256.63l-9.73,70.16h19.45Z"/><path class="cls-2" d="M230.67,320.5c-11.57,0-20.93,9-20.93,20.15s9.36,20.15,20.93,20.15,20.93-9,20.93-20.15S242.24,320.5,230.67,320.5Zm0,29.39a9.13,9.13,0,1,1,9.48-9.12A9.31,9.31,0,0,1,230.67,349.89Z"/><path class="cls-4" d="M227.34,220h6.77v23.7h-6.77Z"/><path class="cls-4" d="M331.5,337.45h24.62V344H331.5Z"/><path class="cls-4" d="M227.34,437.7h6.77v23.7h-6.77Z"/><path class="cls-4" d="M105.34,337.45H130V344H105.34Z"/><path class="cls-4" d="M119,285.73l3.24-5.72,21.62,11.34-3.24,5.72Z"/><path class="cls-4" d="M159.91,241.12l5.69-3.53,13.34,19.92L173.25,261Z"/><path class="cls-4" d="M320.83,297.18l-3.24-5.72,21.62-11.34,3.24,5.72Z"/><path class="cls-4" d="M288.1,260.86l-5.69-3.53,13.34-19.92,5.69,3.53Z"/><path class="cls-4" d="M140.67,384.28l3.24,5.72-21.62,11.34L119,395.63Z"/><path class="cls-4" d="M173.31,420.41l5.69,3.53-13.34,19.92L160,440.33Z"/><path class="cls-4" d="M342.46,395.58l-3.24,5.72L317.6,390l3.24-5.72Z"/><path class="cls-4" d="M301.5,440.39l-5.69,3.53L282.47,424l5.69-3.53Z"/></symbol></defs><title>App Icon - 180x180</title><g id="App_Icon_-_Preview_Sizes" data-name="App Icon - Preview Sizes"><use width="1024" height="1024" transform="scale(0.18 0.18)" xlink:href="#Icon"/></g></svg>